<svg id="Ebene_1" data-name="Ebene 1" xmlns="http://www.w3.org/2000/svg" viewBox="0 0 121.86 153"><path d="M142.47,97.39c-1-3.9-1.73-7.3-2.86-10.54-2.62-7.47-8.1-13-14.39-17.9a121,121,0,0,1-15-13.46c-3-3.27-5.36-2.78-8.43-.13a19.9,19.9,0,0,0-3.13,26.42c2.13,3,4.18,6.15,6.47,9.06,4.27,5.41,4.12,10.87.86,16.68-4.63,8.23-11.5,14.44-18.74,20.09-8.72,6.81-18.06,12.81-27,19.35-3.25,2.38-5.67,1.77-8-1A30.71,30.71,0,0,1,49.9,143c-3.6-5.48-3-7,2-11,10.93-8.82,21.66-17.89,32.33-27,2-1.71,5.3-4.15,2.3-7-3.17-3-5.35.55-7.27,2.6-9.88,10.49-21.43,18.94-33,27.37-2.64,1.91-4.82,1.56-6.83-.84-.72-.86-1.47-1.7-2.12-2.6-4.43-6.09-4.58-7.72.61-13.19C46.76,102,55.9,93,64.86,83.8c1.71-1.75,5-3.42,2.33-6.37-2.43-2.73-4.86-.54-6.7,1.31-9.13,9.17-18.15,18.44-27.25,27.64a43.49,43.49,0,0,1-3.64,3c-1-1.46-2.43-2.79-3-4.41-2.1-5.62-.26-10.79,2.4-15.73,4.38-8.15,10.7-14.64,17.71-20.53.67-.56,1.71-1,1.93-1.7a13,13,0,0,0,.33-1.37,3.21,3.21,0,0,0-3.48-3.82,1.75,1.75,0,0,0-.93.38C39.14,66.94,34,72,28.93,77.12a66.72,66.72,0,0,0-4.32,5.34c-3.26-11.92,5.91-36.95,25-50a61.59,61.59,0,0,1,81.32,10.08C145.83,59.49,149.29,84.31,142.47,97.39Z" transform="translate(-23.97 -21.58)"/><path d="M135.43,101c-.41,10-3.73,19.25-8.61,27.89-7.22,12.79-16.91,23.67-27.08,34.13a114.34,114.34,0,0,1-9.92,9c-4.16,3.39-6.26,3.52-10.25.11-5.38-4.59-10.39-9.61-15.59-14.42-2.49-2.3-2-3.87.73-5.78C74.3,145.22,84,138.65,93.14,131.4c8.09-6.41,15.75-13.49,20-23.26,2.93-6.69,2.9-13.25-1.51-19.48-3.09-4.36-6.15-8.77-9-13.32a10.21,10.21,0,0,1,1.16-12.45c1.43-1.55,2.86-2,4.49-.42,7.14,6.74,14.61,13.18,21.28,20.36C134.15,87.7,135.53,94.23,135.43,101Z" transform="translate(-23.97 -21.58)"/></svg>